<?xml version="1.0" encoding="utf-8"?>
<!-- Generator: Adobe Illustrator 24.2.3, SVG Export Plug-In . SVG Version: 6.00 Build 0)  -->
<svg version="1.1" id="Layer_1" xmlns="http://www.w3.org/2000/svg" xmlns:xlink="http://www.w3.org/1999/xlink" x="0px" y="0px"
	 viewBox="0 0 120 120" style="enable-background:new 0 0 120 120;" xml:space="preserve">
<style type="text/css">
	.st0{fill:#FFC40C;}
</style>
<path class="st0" d="M56.47,10.93c1.95-3.47,5.12-3.47,7.06,0l12.06,21.6c1.93,3.47,6.71,6.95,10.61,7.71l24.27,4.8
	c3.89,0.77,4.89,3.78,2.18,6.7L95.83,69.88c-2.71,2.91-4.54,8.53-4.07,12.48l2.96,24.56c0.46,3.95-2.1,5.81-5.72,4.15l-22.44-10.39
	c-3.61-1.67-9.52-1.67-13.13,0l-22.44,10.39c-3.61,1.66-6.18-0.2-5.71-4.15l2.94-24.56c0.47-3.95-1.35-9.57-4.05-12.48L7.36,51.74
	c-2.7-2.92-1.72-5.93,2.17-6.7l24.28-4.8c3.9-0.76,8.67-4.24,10.61-7.71L56.47,10.93z"/>
</svg>
