<?xml version="1.0" encoding="utf-8"?>
<!-- Generator: Adobe Illustrator 24.2.3, SVG Export Plug-In . SVG Version: 6.00 Build 0)  -->
<svg version="1.1" id="Layer_1" xmlns="http://www.w3.org/2000/svg" xmlns:xlink="http://www.w3.org/1999/xlink" x="0px" y="0px"
	 viewBox="0 0 120 120" style="enable-background:new 0 0 120 120;" xml:space="preserve">
<style type="text/css">
	.st0{fill:#FFC40C;}
</style>
<g>
	<path class="st0" d="M89.63,110.85c-1.03,0-2.14-0.26-3.26-0.77l-21.13-9.78c-2.8-1.29-7.69-1.3-10.48,0l-21.13,9.78
		c-2.38,1.1-4.7,1.03-6.36-0.19c-1.67-1.22-2.45-3.4-2.14-6l2.77-23.11c0.36-3.06-1.16-7.72-3.25-9.96L8.83,53.74
		c-1.78-1.91-2.43-4.13-1.8-6.1c0.64-1.97,2.48-3.39,5.05-3.9l22.83-4.52c3.01-0.59,6.97-3.47,8.48-6.16l11.34-20.33
		c1.27-2.28,3.18-3.59,5.25-3.59c0,0,0,0,0.01,0c2.07,0,3.99,1.31,5.26,3.59L76.6,33.07c1.51,2.69,5.48,5.57,8.48,6.15l22.84,4.52
		c2.56,0.5,4.4,1.92,5.04,3.89c0.64,1.97-0.01,4.19-1.79,6.11L95.34,70.81c-2.08,2.25-3.59,6.91-3.24,9.97l2.77,23.11
		c0.31,2.6-0.47,4.78-2.14,6C91.85,110.53,90.79,110.85,89.63,110.85z M60,13.6L60,13.6c-0.32,0-0.87,0.4-1.37,1.31l0,0L47.28,35.24
		c-2.15,3.85-7.2,7.51-11.51,8.35l-22.83,4.52c-1.02,0.2-1.58,0.6-1.68,0.9c-0.1,0.3,0.12,0.95,0.82,1.7l15.83,17.07
		c2.98,3.21,4.92,9.14,4.4,13.51l-2.77,23.12c-0.12,1.03,0.08,1.68,0.34,1.87c0.26,0.19,0.94,0.18,1.88-0.25l21.12-9.77
		c3.98-1.85,10.22-1.85,14.22,0l21.13,9.78c0.94,0.43,1.62,0.44,1.88,0.25c0.26-0.19,0.46-0.84,0.34-1.87l-2.77-23.11
		c-0.51-4.37,1.42-10.3,4.39-13.52l15.84-17.07c0.7-0.76,0.92-1.4,0.82-1.71c-0.1-0.3-0.65-0.7-1.67-0.9l-22.84-4.52
		c-4.29-0.84-9.35-4.5-11.51-8.35L61.37,14.91C60.87,14,60.32,13.6,60,13.6z"/>
</g>
<path class="st0" d="M60.66,11.29c-1.37-0.28-2.79,0.5-3.84,2.37L45.56,33.85c-1.81,3.24-6.27,6.49-9.92,7.2l-22.68,4.48
	c-3.64,0.72-4.55,3.53-2.03,6.26l15.71,16.95c2.53,2.72,4.23,7.97,3.79,11.66l-2.75,22.95c-0.44,3.69,1.95,5.43,5.33,3.87
	l20.97-9.71c1.83-0.85,4.28-1.22,6.68-1.15V11.29z"/>
</svg>
