<?xml version="1.0" encoding="utf-8"?>
<!-- Generator: Adobe Illustrator 24.2.3, SVG Export Plug-In . SVG Version: 6.00 Build 0)  -->
<svg version="1.1" xmlns="http://www.w3.org/2000/svg" xmlns:xlink="http://www.w3.org/1999/xlink" x="0px" y="0px"
	 viewBox="0 0 1297.69 1297.69" style="enable-background:new 0 0 1297.69 1297.69;" xml:space="preserve">
<style type="text/css">
	.st0{display:none;}
	.st1{display:inline;fill:none;stroke:#FFCA79;stroke-width:2;stroke-miterlimit:10;}
	.st2{fill:#FFCA79;}
	.st3{fill:#97EDC5;}
	.st4{fill:#333333;}
	.st5{fill:#888888;}
	.st6{fill:#D0D0D0;}
	.st7{fill:#FFFFFF;}
	.st8{fill:#89A2D3;}
	.st9{fill:#8AA3D4;}
	.st10{fill:#C5D4F1;}
	.st11{fill:#07AB83;}
	.st12{opacity:0.3;}
	.st13{fill:#FFF0DC;}
	.st14{filter:url(#Adobe_OpacityMaskFilter);}
	.st15{opacity:0.2;mask:url(#SVGID_1_);}
	.st16{fill:#DBDBDB;}
</style>
<g id="spare_drawing" class="st0">
</g>
<g id="defult_icons">
	<g>
		<path class="st6" d="M968.22,322.46c-135.47-179.81-393.89-220.58-571.55-76.3c-97.66,79.3-147.55,197.75-138.88,322.9
			c4.41,63.8,21.54,121.39,47.19,174.56c72.35,150.01,212.5,265.01,326.38,386.33c1.35,1.44,2.71,2.87,4.19,4.16
			c7.1,6.25,13.84,6.31,20.97,0.15c1.48-1.28,2.8-2.77,4.19-4.16c72.43-72.43,144.81-145.06,211.68-222.72
			c68.14-79.13,131.13-165.38,157.08-268.22C1056.51,532.01,1035.13,411.28,968.22,322.46z M648.84,721.42
			c-104.88,0-189.9-85.02-189.9-189.9c0-104.88,85.02-189.9,189.9-189.9s189.9,85.02,189.9,189.9
			C838.74,636.4,753.72,721.42,648.84,721.42z"/>
	</g>
</g>
</svg>
