<?xml version="1.0" encoding="utf-8"?>
<!-- Generator: Adobe Illustrator 24.2.3, SVG Export Plug-In . SVG Version: 6.00 Build 0)  -->
<svg version="1.1" xmlns="http://www.w3.org/2000/svg" xmlns:xlink="http://www.w3.org/1999/xlink" x="0px" y="0px"
	 viewBox="0 0 1297.69 1297.69" style="enable-background:new 0 0 1297.69 1297.69;" xml:space="preserve">
<style type="text/css">
	.st0{display:none;}
	.st1{display:inline;fill:none;stroke:#FFCA79;stroke-width:2;stroke-miterlimit:10;}
	.st2{fill:#FFCA79;}
	.st3{fill:#97EDC5;}
	.st4{fill:#333333;}
	.st5{fill:#888888;}
	.st6{fill:#D0D0D0;}
	.st7{fill:#FFFFFF;}
	.st8{fill:#89A2D3;}
	.st9{fill:#8AA3D4;}
	.st10{fill:#C5D4F1;}
	.st11{fill:#07AB83;}
	.st12{opacity:0.3;}
	.st13{fill:#FFF0DC;}
	.st14{filter:url(#Adobe_OpacityMaskFilter);}
	.st15{opacity:0.2;mask:url(#SVGID_1_);}
	.st16{fill:#DBDBDB;}
</style>
<g id="spare_drawing" class="st0">
</g>
<g id="defult_icons">
	<g>
		<path class="st6" d="M1151.32,230.05H146.1c-3.89,4.9-7.67,9.66-11.24,14.16c0,55.4-0.04,110.23,0.03,165.05
			c0.02,15.22,10.01,25.04,25.35,25.16c10.94,0.09,21.88,0.02,34.17,0.02v598.09c0,3.13,0.08,6.27-0.02,9.4
			c-0.11,3.16,1.36,5.49,2.7,8.31c5.93,12.42,15.21,17.41,28.82,17.4c285.64-0.15,571.28-0.12,855.79-0.12
			c16.54-7.42,21.92-19.39,21.87-36.64c-0.45-194.26-0.29-388.52-0.29-582.77v-13.67c12.36,0,23.3,0.07,34.25-0.02
			c15.31-0.13,25.25-9.96,25.27-25.24c0.07-54.82,0.03-109.63,0.03-165.36C1159.23,239.51,1155.34,234.86,1151.32,230.05z
			 M1052.62,1015.88c-13.32,2.28-754.35,3.26-808.07,0.93V434.7h808.07V1015.88z"/>
		<path class="st6" d="M648.99,487.72c51.64,0,103.29,0.25,154.93-0.17c13.55-0.11,25.03,4.86,36.06,11.3
			c12.35,7.21,22.88,17.06,29.5,29.7c5.82,11.11,11.45,22.73,11.32,35.99c-0.13,13.55-0.14,26.72-5.82,39.87
			c-3.58,8.28-8.06,15.71-13.19,22.63c-11.06,14.89-26.78,23.61-44.29,28.73c-8.01,2.35-16.54,4.12-24.83,4.15
			c-95.98,0.28-191.97,0.49-287.95-0.1c-17.61-0.11-34.55-5.73-49.9-15.31c-12-7.49-21.11-18.11-27.68-29.8
			c-5.81-10.32-10.42-22.14-10.24-34.82c0.19-13.03,1.03-25.43,5.67-38.32c5.79-16.07,15.56-27.97,28.09-37.94
			c8.25-6.57,18.08-11,28.44-14.33c4.69-1.51,8.99-1.45,13.4-1.47C544.66,487.67,596.83,487.72,648.99,487.72z"/>
	</g>
</g>
</svg>
