<?xml version="1.0" encoding="utf-8"?>
<!-- Generator: Adobe Illustrator 24.2.3, SVG Export Plug-In . SVG Version: 6.00 Build 0)  -->
<svg version="1.1" xmlns="http://www.w3.org/2000/svg" xmlns:xlink="http://www.w3.org/1999/xlink" x="0px" y="0px"
	 viewBox="0 0 1297.69 1297.69" style="enable-background:new 0 0 1297.69 1297.69;" xml:space="preserve">
<style type="text/css">
	.st0{display:none;}
	.st1{display:inline;fill:none;stroke:#FFCA79;stroke-width:2;stroke-miterlimit:10;}
	.st2{fill:#FFCA79;}
	.st3{fill:#97EDC5;}
	.st4{fill:#333333;}
	.st5{fill:#888888;}
	.st6{fill:#07AB83;}
	.st7{fill:#FFFFFF;}
	.st8{fill:#89A2D3;}
	.st9{fill:#8AA3D4;}
	.st10{fill:#C5D4F1;}
	.st11{opacity:0.3;}
	.st12{fill:#FFF0DC;}
	.st13{filter:url(#Adobe_OpacityMaskFilter);}
	.st14{opacity:0.2;mask:url(#SVGID_1_);}
	.st15{fill:#DBDBDB;}
</style>
<g id="spare_drawing" class="st0">
</g>
<g id="defult_icons">
	<g>
		<path class="st6" d="M1169.84,477.87c0,8.82,0,17.64,0,26.46c-0.68,0.54-1.96,1.1-1.94,1.62c0.28,7.9-2.13,15.21-3.88,22.8
			c-3.4,14.77-13.12,36.37-20.99,48.36c-4.52,6.88-10.21,12.76-14.93,19.31c-7.3,10.11-16.81,17.12-26.6,24.19
			c-9.82,7.09-20.34,12.62-31.49,17.35c-15.56,6.6-31.71,10.05-48.41,10.7c-8.5,0.33-17.09,1.19-25.68-1.63
			c-5.76-1.9-12.66-0.47-18.31-2.53c-9.1-3.32-18.5-6.17-27.09-10.67c-7.86-4.12-15.5-8.67-22.76-14.04
			c-10.87-8.03-21.52-15.98-29.17-27.37c-1.39-2.07-3.78-3.46-6.18-5.57c-4.17,5.1-7.61,9.92-11.66,14.15
			c-9.96,10.39-21.26,19.01-33.84,26.2c-4.67,2.67-9.11,5.79-14.19,7.59c-5.32,1.89-10.62,4.1-15.72,6.27
			c-11.16,4.74-22.99,5.18-34.47,7.56c-6.18,1.28-12.85,0.49-19.28,0.15c-6.18-0.33-12.77-0.15-18.35-2.33
			c-4.19-1.64-8.34-0.79-12.27-2.29c-20.48-7.84-30.92-10.37-49.63-25.15c-3.48-2.75-7.86-4.41-11.14-7.34
			c-5.27-4.71-10.55-9.63-14.69-15.29c-2.57-3.52-5.17-6.48-9.11-9.57c-3.58,4.58-6.4,9.04-10.06,12.65
			c-6.37,6.3-12.86,12.61-20.05,17.91c-6.61,4.86-13.63,9.25-20.84,13.35c-8.84,5.03-18.2,8.72-27.68,11.78
			c-9.66,3.12-19.87,4.8-29.97,6.17c-6.66,0.91-13.55,0.44-20.32,0.1c-6.52-0.33-13.47-0.1-19.35-2.38
			c-3.9-1.51-7.7-0.67-11.31-2.15c-9.56-3.93-19.51-6.88-28.75-11.65c-13.53-6.97-25.63-15.95-37.09-25.84
			c-3.56-3.07-7.39-6.27-9.68-10.24c-2.26-3.91-5.23-6.44-8.98-9.85c-3.65,4.65-6.47,9.09-10.11,12.7
			c-6.13,6.06-12.45,12.03-19.3,17.23c-7.84,5.95-15.81,11.98-24.93,15.87c-12.16,5.18-23.77,12.25-37.63,12.3
			c-3.21,3.93-8.03,0.44-11.26,2.23c-4.17,2.31-8.29,1.69-12.49,1.81c-4.74,0.14-9.51,0.3-14.24-0.04
			c-4.83-0.35-9.61-1.78-14.42-1.83c-5.63-0.06-10.75-1.9-15.93-3.44c-13.6-4.04-26.55-9.49-38.81-16.88
			c-9.23-5.56-17.47-12.22-25.6-19.09c-4.26-3.59-7.41-8.36-11.02-12.61c-11.73-13.79-17.52-22.9-25-39.57
			c-10.77-23.99-10.91-28.89-13.44-49.39c-0.08-0.61-1.28-1.08-1.96-1.62c0-8.82,0-17.64,0-26.46c2.97-3.44,3.08-7.9,3.99-11.98
			c2.08-9.31,4.33-18.62,6.69-27.82c3.3-12.87,6.49-25.78,9.67-38.68c2.2-8.93,3.99-17.98,6.66-26.76
			c3.68-12.12,6.46-24.47,9.47-36.74c2.95-12.03,6.03-24.05,8.82-36.13c1.45-6.27,3.36-12.81,5.13-19.11
			c1.78-6.32,3.75-12.83,4.68-19.53c0.91-6.53,2.88-12.98,4.95-19.27c4.07-12.37,9.82-23.7,20.03-32.44
			c11.6-9.93,24.76-16.35,40.01-16.35c267.26-0.15,534.52-0.1,801.78-0.13c8.2,0,15.7,2.56,23.06,5.76
			c16.2,7.04,27.42,18.84,34.04,35.23c1.93,4.77,2.78,9.77,4.28,14.53c3.9,12.4,6.55,25.09,9.72,37.64c3.03,12,5.72,24.17,8.87,36.1
			c2.31,8.76,4.32,17.74,7.07,26.47c2.73,8.67,4.63,17.82,6.51,26.83c2.54,12.15,7.13,23.82,8.28,36.27
			c4.15,2.14,0.81,6.7,3.33,9.91c2.12,2.71,1.95,7.24,2.73,10.98c0.72,3.44,1.06,6.99,2.1,10.33c2.56,8.2,5.14,16.37,6.05,24.96
			C1169.42,470.31,1165.67,475.71,1169.84,477.87z"/>
		<path class="st6" d="M779.04,1104.69c0-87.11,0-173.5,0-260.2c-86.75,0-173.14,0-260.25,0c0,86.43,0,173.07,0,260.2
			c-3.69,0-6.68,0-9.67,0c-83.78,0-167.55,0-251.33,0c-13.36,0-28.87-5.83-39.76-14.58c-12.24-9.83-19.79-21.5-23.32-38.07
			c-0.97-4.54-1.73-8.91-1.73-13.46c-0.02-111.59-0.02-223.18-0.02-334.77c0-3.31,0-6.63,0-10.14c5.56,2.18,10.46,4.05,15.31,6.03
			c4.96,2.03,10.15,3.44,15.11,5.31c5.05,1.91,10.41,2.26,15.43,4.51c3.89,1.74,9.18-0.76,13.25,2.38
			c8.05-1.53,15.61,2.37,23.58,2.09c7.79-0.27,15.88,1.24,23.33-0.37c10.67-2.3,21.57-2.47,32.26-5.33
			c10.09-2.7,20.19-5.74,29.79-9.36c12.56-4.74,25.23-10.16,35.91-18.95c4.8-3.95,10.39-3.76,15.11-0.19
			c9.45,7.16,20.07,12.09,30.92,16.3c12.93,5.02,26.23,8.85,39.83,12.08c22.15,5.26,44.37,3.39,66.57,3.46
			c6.16,0.02,12.61-2.33,18.83-3.18c13.39-1.84,25.81-6.41,38.33-10.85c7.1-2.52,14.14-5.19,20.5-9.52
			c4.93-3.36,10.65-5.54,15.63-8.83c4.83-3.19,9.58-2.37,13.44,0.46c9.55,7.01,20.23,11.63,30.89,16.43
			c8.44,3.8,32.24,9.8,39.88,11.88c21.99,5.98,44.34,3.25,66.54,3.78c3.43,0.08,6.88-1.42,10.35-1.88c3.19-0.42,6.71,0.86,9.33-2.08
			c13.33-0.33,25.19-6.11,37.49-10.22c7.16-2.39,14.07-5.36,20.53-9.42c5.31-3.34,11.54-5.33,16.54-9.02
			c5.27-3.89,9.35-1.43,13.29,1.1c6.68,4.28,13.11,9.14,20.49,11.98c7.9,3.04,15.29,7.25,23.52,9.58c8.15,2.31,16.1,5.4,24.26,7.68
			c5.57,1.56,11.55,1.67,17.35,2.38c5.82,0.71,11.63,1.62,17.48,1.97c5.75,0.34,11.54-0.13,17.29,0.14
			c4.99,0.23,9.66-0.89,14.44-2.01c4.38-1.03,9.38,1.6,13.38-2.12c11,1.29,20.54-4.83,31.03-6.25c3.29-0.45,6.34-2.61,9.53-3.92
			c4.64-1.91,9.31-3.75,14.52-5.85c0.15,1.62,0.46,3.41,0.46,5.19c0.02,114.3,0.15,228.61-0.14,342.91
			c-0.03,13.6-5.5,25.84-13.62,37.07c-8.3,11.47-19.44,17.95-32.48,22.12c-5.84,1.87-11.57,3.62-17.86,3.61
			C953.77,1104.66,866.94,1104.69,779.04,1104.69z"/>
	</g>
</g>
</svg>
