<?xml version="1.0" encoding="UTF-8"?>
<svg version="1.1" viewBox="0 0 896 1600" width="1280" height="1280" xmlns="http://www.w3.org/2000/svg">
<path transform="translate(381 753)" d="m0 0c3.37 0.03 6.75 0.01 10.1-0.02 17.7-0.12 34.2 1.49 51.4 5.67 1.2 0.29 1.2 0.29 2.43 0.59 4.58 1.14 9.11 2.42 13.6 3.79 0.65 0.19 1.3 0.38 1.97 0.58 8.89 2.63 17.5 5.66 26 9.36 16.4 7.05 33.6 11 51 14.7-0.59 5.54-0.59 5.54-2.36 7.51-9.01 5.21-19.1 9.26-29.6 9.49-1.66 0.06-1.66 0.06-3.36 0.12-16.2 0.3-31-2.97-46.6-7.12 2.55 5.5 6.49 6.8 12 9 13.6 4.62 26 7.34 40.2 4.81 0.77-0.13 1.54-0.27 2.33-0.41 2.47-0.45 4.95-0.92 7.42-1.4 0.83-0.15 1.65-0.31 2.5-0.47 24.2-4.69 46.1-15.8 66.8-28.9 4.21-2.59 6.71-3.95 11.7-3.67 0.78 5.13-0.1 7.67-3.06 11.9-3.43 4.56-7.1 8.85-10.9 13.1-1.56 1.73-3.13 3.46-4.69 5.19-0.72 0.8-1.45 1.6-2.2 2.42-2.13 2.35-2.13 2.35-3.97 4.86-2.61 3.09-5.5 5.4-8.7 7.84-0.62 0.48-1.25 0.96-1.89 1.46-1.26 0.96-2.52 1.93-3.79 2.89-1.53 1.17-3.05 2.36-4.56 3.55-12.4 9.52-26.1 15.1-41.2 18.8-1.24 0.31-2.49 0.62-3.77 0.94-32.4 7.2-65.6 0.42-94.2-15.9-2.37-1.51-4.71-3.07-7.03-4.66-2.21-1.5-4.47-2.87-6.78-4.21-7.65-4.55-15-9.45-22.1-14.9-24.2-17.8-53.4-28.5-82.1-36.2l-1-4c25.5-13.6 56-16.9 84.4-16.6z" fill="#000202"/>
</svg>
