<?xml version="1.0" encoding="utf-8"?>
<!-- Generator: Adobe Illustrator 24.2.3, SVG Export Plug-In . SVG Version: 6.00 Build 0)  -->
<svg version="1.1" id="logo" xmlns="http://www.w3.org/2000/svg" xmlns:xlink="http://www.w3.org/1999/xlink" x="0px" y="0px"
	 viewBox="0 0 1080 1920" style="enable-background:new 0 0 1080 1920;" xml:space="preserve">
<style type="text/css">
	.st0{fill:#07AB83;}
</style>
<path class="st0" d="M408.96,905.38c21.93-4.82,44.55-7.85,67.02-5.66c11.1-0.02,22.12,1.63,33.01,3.68
	c30.58,6.01,60.2,16.07,89.16,27.45c14.9,4.79,30.05,8.96,45.55,11.33c3.53,0.7,4.82,5.73,2.15,8.1
	c-6.69,6.03-15.3,9.53-24.01,11.45c-11.52,2.49-23.45,2.42-35.12,1.18c-12.25-1.32-24.3-4.03-36.14-7.34
	c-1.33-0.41-2.18,0.84-2.47,1.95c0.35,0.65,0.74,1.31,1.37,1.74c7.34,5.73,16.08,9.45,25.11,11.58c18.46,4.31,37.77,2.41,56.03-1.92
	c6.58-1.62,13.13-3.44,19.5-5.76c21.25-8.74,42.04-18.84,61.37-31.32c1.62-0.95,3.03-2.4,4.94-2.74c2.78-0.46,5.62,1.96,5.52,4.81
	c0.1,1.86-1.22,3.31-2.14,4.79c-18.88,28.73-44.31,53.71-75.12,69.35c-18.45,8.37-38.72,12.4-58.92,12.92
	c-22.25,0.45-44.57-4.08-64.89-13.16c-16.52-7.99-32.29-17.43-47.77-27.26c-5.24-3.44-10.63-6.68-15.58-10.55
	c-14.67-10.6-30.75-19.14-47.32-26.36c-15.96-6.92-32.54-12.35-49.42-16.53c-3.42-0.9-3.64-6.35-0.29-7.52
	C376.3,913.84,392.51,909.06,408.96,905.38z"/>
</svg>
